<?xml version="1.0" encoding="UTF-8"?>
<svg id="Capa_2" data-name="Capa 2" xmlns="http://www.w3.org/2000/svg" viewBox="0 0 2549.17 1934.86">
  <defs>
    <style>
      .cls-1 {
        fill: #00ad10;
      }

      .cls-2 {
        fill: #5c5b1e;
      }

      .cls-3 {
        fill: #6e8c2e;
      }

      .cls-4 {
        fill: #4a9f34;
      }

      .cls-5 {
        fill: #0042fc;
      }

      .cls-6 {
        fill: #002547;
      }
    </style>
  </defs>
  <g id="Capa_1-2" data-name="Capa 1">
    <g>
      <path class="cls-1" d="m2549.17,1556.78c0,23.87-18.73,42.6-43.12,42.6s-43.37-18.73-43.37-42.6,19.25-42.09,43.37-42.09,43.12,18.73,43.12,42.09Zm-75.7,0c0,18.73,13.85,33.62,32.85,33.62s32.08-14.89,32.08-33.37-13.61-33.87-32.34-33.87-32.59,15.14-32.59,33.62Zm25.91,22.07h-9.75v-42.09c3.85-.77,9.24-1.28,16.17-1.28,7.95,0,11.54,1.28,14.62,3.08,2.32,1.8,4.11,5.13,4.11,9.24,0,4.62-3.59,8.21-8.73,9.75v.51c4.11,1.54,6.42,4.62,7.71,10.27,1.28,6.42,2.05,8.98,3.08,10.52h-10.52c-1.29-1.54-2.06-5.39-3.34-10.27-.77-4.62-3.33-6.67-8.73-6.67h-4.62v16.94Zm.26-23.87h4.62c5.39,0,9.75-1.8,9.75-6.16,0-3.85-2.82-6.42-8.98-6.42-2.57,0-4.36.26-5.39.52v12.06Z"/>
      <g>
        <path class="cls-5" d="m226.47,1799.58c-13.71,7.15-44.11,16.69-82.84,16.69-87.01,0-143.63-59-143.63-147.19s60.78-153.16,154.95-153.16c30.99,0,58.4,7.74,72.7,14.89l-11.92,40.53c-12.52-7.15-32.18-13.71-60.78-13.71-66.15,0-101.91,48.87-101.91,109.06,0,66.75,42.91,107.87,100.11,107.87,29.8,0,49.47-7.75,64.36-14.31l8.95,39.33Z"/>
        <path class="cls-5" d="m313.48,1675.62c1.19,70.92,46.48,100.12,98.93,100.12,37.55,0,60.19-6.56,79.86-14.9l8.94,37.55c-18.47,8.34-50.06,17.88-95.94,17.88-88.8,0-141.84-58.4-141.84-145.41s51.25-155.55,135.28-155.55c94.16,0,119.19,82.84,119.19,135.88,0,10.73-1.19,19.07-1.78,24.44h-202.63Zm153.75-37.55c.59-33.37-13.7-85.22-72.7-85.22-53.04,0-76.28,48.87-80.45,85.22h153.16Z"/>
        <path class="cls-5" d="m582.85,1599.94c0-29.8-.59-54.22-2.39-78.07h46.48l2.98,47.67h1.19c14.31-27.41,47.68-54.23,95.36-54.23,39.93,0,101.91,23.84,101.91,122.77v172.23h-52.44v-166.27c0-46.48-17.28-85.22-66.75-85.22-34.56,0-61.39,24.43-70.33,53.63-2.38,6.56-3.58,15.5-3.58,24.44v173.42h-52.44v-210.37Z"/>
        <path class="cls-5" d="m974.4,1439.03v82.84h75.09v39.93h-75.09v155.55c0,35.76,10.14,56.02,39.34,56.02,13.7,0,23.83-1.78,30.39-3.58l2.38,39.34c-10.13,4.17-26.22,7.15-46.48,7.15-24.43,0-44.1-7.74-56.61-22.05-14.89-15.49-20.26-41.11-20.26-75.09v-157.33h-44.69v-39.93h44.69v-69.13l51.25-13.71Z"/>
        <path class="cls-5" d="m1108.49,1611.86c0-33.97-.59-63.17-2.39-89.99h45.89l1.79,56.61h2.38c13.11-38.74,44.7-63.17,79.86-63.17,5.96,0,10.14.6,14.9,1.79v49.46c-5.37-1.19-10.73-1.78-17.89-1.78-36.94,0-63.16,28.01-70.32,67.34-1.19,7.15-2.39,15.5-2.39,24.44v153.75h-51.85v-198.45Z"/>
        <path class="cls-5" d="m1558.44,1663.7c0,106.68-73.89,153.17-143.63,153.17-78.07,0-138.26-57.22-138.26-148.39,0-96.55,63.17-153.17,143.02-153.17s138.86,60.2,138.86,148.39Zm-228.85,2.98c0,63.17,36.36,110.85,87.61,110.85s87.6-47.08,87.6-112.04c0-48.87-24.43-110.85-86.41-110.85s-88.8,57.21-88.8,112.04Z"/>
        <path class="cls-1" d="m1873.11,1521.87c-1.19,20.86-2.39,44.1-2.39,79.26v167.46c0,66.15-13.11,106.67-41.11,131.7-28.01,26.22-68.54,34.56-104.89,34.56s-72.7-8.34-95.95-23.83l13.11-39.93c19.07,11.92,48.87,22.65,84.63,22.65,53.64,0,92.97-28.01,92.97-100.72v-32.18h-1.19c-16.09,26.82-47.08,48.28-91.78,48.28-71.52,0-122.77-60.79-122.77-140.64,0-97.74,63.77-153.17,129.92-153.17,50.06,0,77.47,26.23,89.99,50.06h1.2l2.38-43.5h45.89Zm-54.23,113.83c0-8.94-.59-16.69-2.98-23.84-9.53-30.39-35.16-55.42-73.3-55.42-50.06,0-85.81,42.31-85.81,109.06,0,56.61,28.61,103.69,85.22,103.69,32.18,0,61.38-20.26,72.7-53.63,2.98-8.94,4.17-19.07,4.17-28.01v-51.85Z"/>
        <path class="cls-1" d="m2117.47,1810.31l-4.17-36.36h-1.78c-16.09,22.65-47.09,42.92-88.2,42.92-58.41,0-88.2-41.12-88.2-82.84,0-69.72,61.98-107.86,173.42-107.27v-5.96c0-23.83-6.56-66.74-65.56-66.74-26.81,0-54.83,8.33-75.08,21.45l-11.92-34.57c23.83-15.49,58.41-25.63,94.75-25.63,88.2,0,109.66,60.2,109.66,118v107.87c0,25.03,1.19,49.46,4.77,69.13h-47.67Zm-7.75-147.2c-57.21-1.19-122.17,8.94-122.17,64.96,0,33.97,22.65,50.05,49.47,50.05,37.55,0,61.38-23.83,69.72-48.27,1.79-5.36,2.98-11.33,2.98-16.69v-50.06Z"/>
        <path class="cls-1" d="m2237.85,1756.67c15.49,10.14,42.91,20.86,69.13,20.86,38.14,0,56.02-19.07,56.02-42.91,0-25.03-14.89-38.74-53.64-53.04-51.85-18.48-76.28-47.08-76.28-81.65,0-46.48,37.55-84.63,99.53-84.63,29.2,0,54.83,8.34,70.92,17.89l-13.11,38.14c-11.33-7.15-32.18-16.69-59-16.69-31,0-48.28,17.88-48.28,39.33,0,23.84,17.28,34.56,54.83,48.86,50.06,19.07,75.69,44.11,75.69,87.01,0,50.66-39.33,86.41-107.86,86.41-31.59,0-60.79-7.74-81.06-19.66l13.12-39.93Z"/>
      </g>
      <g>
        <path class="cls-5" d="m533.11,631.51c8.96-179.74,78.48-331.95,209.22-455.51,82.13-77.62,178.97-129.31,288.57-156.87,37.56-9.45,75.72-15.39,114.41-17.89,11.49-.74,22.96-1.1,34.45-1.23,4.78-.06,4.82.16,5.04,4.77.05,1.1.02,2.21.02,3.32-.03,92.84-.05,185.69-.11,278.53,0,9.97.81,8.76-8.78,9.26-110.97,5.79-201.5,51.99-270.85,138.62-39.48,49.32-63.49,105.87-72.99,168.36-25.43,167.34,67.69,329.3,225.2,391.76,30.95,12.27,63.11,19.88,96.28,23.22,8.59.87,17.21,1,25.8,1.73,5.13.44,5.14.49,5.3,5.39.05,1.32.01,2.65.01,3.98,0,92.62,0,185.24-.01,277.87,0,9.35.94,8.57-8.54,8.35-124.57-2.8-239.34-37.94-343.86-105.57-87.82-56.83-157.92-130.88-210.7-221.24-37.58-64.34-63.18-133.19-77.32-206.29-6.39-33.02-10.12-66.37-11.15-100.01-.76-16.85-.76-33.69,0-50.54Z"/>
        <path class="cls-1" d="m1846.86,683.36c-2.26,53.64-10.45,106.33-25.41,157.93-59.09,203.85-213.94,367.35-414.26,437.4-48.17,16.85-97.64,27.86-148.41,33.03-4.18.43-8.36.81-12.55,1.1-4.25.29-4.31.19-4.5-4.29-.04-.88-.01-1.77-.01-2.65,0-93.94-.01-187.88.04-281.83,0-8.47-1.53-7.36,7.55-8.98,79.34-14.1,147.14-49.79,202.9-108.09,9.33-9.75,18.32-19.8,26.09-30.86,1.63-2.32,3.14-4.73,5.45-8.21-13.73-.15-26.38-.3-39.02-.44-1.69-.74-3.48-.46-5.23-.46-60.67-.01-121.34-.01-182.02,0-1.75,0-3.54-.28-5.23.45-12.88.29-10.52,1.22-10.53-10.21-.08-96.65-.05-193.3-.03-289.95,0-2.86.21-5.72.32-8.58,2.01-1.4,4.3-.73,6.44-.73,194.95-.03,389.91-.03,584.86,0,2.15,0,4.43-.63,6.46.7,3.75,21.48,5.29,43.2,6.67,64.92.17,2.63.25,5.27.37,7.91.8,17.28.8,34.55,0,51.83Z"/>
        <path class="cls-1" d="m1478.98,436.76c-2.83-.54-4.45-2.58-6.15-4.68-56.23-69.62-128.54-112.64-216.05-130.48-3.68-.75-7.39-1.31-11.11-1.84-2.59-.37-4.02-1.52-3.78-4.32.11-1.32,0-2.65,0-3.98-.06-93.91-.11-187.82-.18-281.74,0-9.17.04-7.62,7.43-7.01,66.79,5.5,131.12,21.33,192.83,47.28,133.69,56.2,237.57,147.02,312.74,270.82,19.07,31.41,34.87,64.47,48.13,98.73,2.14,5.53,4.61,11,5.27,17-2.03,1.31-4.31.69-6.46.69-105.37.03-210.75.03-316.12,0-2.18,0-4.42.42-6.55-.49Z"/>
        <path class="cls-4" d="m1839.82,558.7c-61.19-.03-122.38-.08-183.57-.07-138.07.02-276.13.07-414.2.11,2.16-2.28,4.96-1.25,7.46-1.26,47.75-.11,95.49-.17,143.24-.17,146.33,0,292.66,0,439,.08,2.7,0,5.74-1.2,8.08,1.32Z"/>
        <path class="cls-2" d="m1478.98,436.76c44.59-.05,89.18-.12,133.77-.15,65.12-.04,130.24-.04,195.36-.06-2.63,2.49-5.89,1.28-8.83,1.29-101.11.1-202.23.11-303.34.13-3.53,0-7.06.04-10.6.02-2.19-.01-4.45.24-6.36-1.23Z"/>
        <path class="cls-3" d="m1252.28,867.47c2.46-1.34,5.16-1.02,7.79-1.02,58.74-.02,117.49-.02,176.23,0,2.84,0,5.77-.41,8.45,1.03-1.98.1-3.95.29-5.93.29-59.98.02-119.97.02-179.95,0-2.2,0-4.39-.19-6.59-.29Z"/>
        <path class="cls-6" d="m533.11,631.51c0,16.85,0,33.69,0,50.54-1.87-16.85-1.88-33.69,0-50.54Z"/>
      </g>
    </g>
  </g>
</svg>