<?xml version="1.0" encoding="utf-8"?>
<!-- Generator: Adobe Illustrator 27.2.0, SVG Export Plug-In . SVG Version: 6.00 Build 0)  -->
<svg version="1.1" id="Capa_2_00000162345523839425599070000003427188521092663740_"
	 xmlns="http://www.w3.org/2000/svg" xmlns:xlink="http://www.w3.org/1999/xlink" x="0px" y="0px" viewBox="0 0 3479.9 1113.5"
	 style="enable-background:new 0 0 3479.9 1113.5;" xml:space="preserve">
<style type="text/css">
	.st0{fill:#64B12E;}
	.st1{fill:#FF7200;}
</style>
<g id="Capa_1-2">
	<g>
		<path class="st0" d="M792,552.8c-14.9-31.8-34-60.8-56.8-87.5c-25.2-29.5-53.5-55.5-85.6-77.2c-28.7-19.4-59.2-35.4-92.1-46.8
			c-26.3-9.2-53-16.3-80.5-21.2c-25.4-4.6-51-4.3-76.4-4.3c-25.5,0-51.1-0.2-76.6,0.2c-30.9,0.5-61.8,0.1-92.7,0.1
			c-17.6,0-35.2,0-52.7,0c-2,0-4,0-6,0c-5,0.2-7.4-2.2-7.1-7.3c0.1-2,0-4,0-6c0-57,0-114,0-171c0-41,0-82,0-123c0-8.6-0.1-8.9-8-8.9
			C107.7,0,58,0,8.4,0.1c-7.8,0-7.9,0.3-8.1,7.8c0,1.7,0,3.3,0,5c0,79.7-0.4,159.3,0.1,239C1.2,410.4-1.8,569,1.9,727.6
			c0.6,23.6,3.2,46.8,8.6,69.8c9.1,39.1,24.4,75.6,44.9,110C66.4,926,78.8,943.6,92.9,960c23.1,26.7,48.4,50.8,77.4,71.2
			c36.4,25.7,75.9,44.7,118.3,58.1c38.1,12.1,77.3,17.9,117.2,19.1c21.6,0.6,43-1.2,64.5-3.5c18.2-2,36.2-5.1,53.6-9.8
			c31.4-8.5,62.1-19.2,90-36.7c4-2.5,6.2-5.3,6.9-10.1c3.5-24.7,4.6-49.4,4.5-74.3c-0.1-30.7-3.2-60.9-8.6-91.1
			c-5.1-28.3-13.9-55.5-27.6-80.7c-17.4-31.9-41.3-58.5-70-80.8c-43.6-33.8-92.9-55.1-146.7-66.1c-5.1-1-10.5-4-16.3-1.9
			c0.5,1,0.6,1.9,1,2.1c14.9,5.9,28.9,13.5,43.1,21c16.8,8.8,33.2,18.2,48.7,29.2c15.7,11.2,30.7,23.2,45,36.2
			c16.6,15.1,31.1,31.8,43.5,50.3c7,10.5,13,21.6,18.4,33c9.6,20.3,15.4,41.5,19.6,63.4c1.2,6.1-0.7,10.2-5.8,13.5
			c-13.7,8.8-27,17.8-41.8,24.8c-33.5,15.8-68.4,24.8-105.5,24.7c-12.7,0-25.5,0.8-37.9-0.9c-17.7-2.3-35-6.5-52.2-11.8
			c-38-11.7-70.5-32.2-98.9-59.5C220.6,867.3,210.4,853,201,838c-22.7-36.3-35-76-35.4-118.6c-0.7-80.7-0.3-161.3-0.3-242
			c0-9.8,0.1-9.8,9.9-9.9c0.3,0,0.7,0,1,0c78.3,0,156.7,0,235,0.1c8.6,0,17.3,0,25.9,1.1c22.9,2.9,44.7,9.2,66.2,17.4
			c49,18.7,88.5,49.2,118.6,92c12.2,17.4,22.3,36,29,56.5c7,21.6,12,43.4,13.1,66c1.3,25.1-1.6,49.7-8.1,73.9
			c-3.2,11.9-7.2,23.5-12,34.8c-2.4,5.5-4.8,5.8-8.3,0.8c-3.1-4.3-5.5-9.1-8.6-13.4c-3-4.2-5.5-9.2-10.6-11.7
			c3.5,9,8.3,17.3,11.8,26.3c13.3,34.1,18.4,69.9,20.7,106c2.7,43.2,0.2,86.4-7.8,129.1c-0.8,4.1-1,8.3-1.5,12.5
			c2.6-3.1,4-6.4,5-9.8c1.8-6.7,5.4-11.4,11.4-15.4c17-11.6,33-24.6,47.8-38.9c36.2-34.9,65.9-74.6,87.1-120.4
			c8.4-18.1,15.8-36.5,21.4-55.6c10.7-36.2,15.5-73.4,15.4-111c-0.1-18.8-2.3-37.6-5.3-56.4C816.8,616.9,806.7,584.2,792,552.8
			L792,552.8z"/>
		<path class="st1" d="M1736.7,513.9c-7.4-22.2-21.2-38.9-42-49.9c-17.7-9.4-36.6-14-56.4-15.6c-31.8-2.5-62.3,3.1-91.8,15
			c-17,6.9-33.5,14.6-51.6,24.4c0-9.9,0.1-17.8,0-25.7c-0.1-8-0.1-8.1-8.3-8.1c-28.7,0-57.3,0-86,0c-11.6,0-10.5-1.3-10.5,10.9
			c0,73.6,0,147.3,0,220.9c0,64.7,0,129.3,0,194c0,11.4-0.4,10.1,10.3,10.2c28,0,56,0,84,0c2,0,4-0.1,6,0c2.8,0.1,4.4-1.1,4.4-4
			c0-2.7,0.1-5.3,0.1-8c0-45.7,0-91.3,0-137c0-60.3,0.1-120.6-0.2-181c0-6.6,1.9-10.2,7.8-13.2c14.7-7.3,29.5-14,45.5-17.7
			c17.8-4.2,35.6-8.5,54.3-5.2c15,2.7,25.7,10.3,31.6,24.5c4.8,11.5,6.9,23.6,6.9,36c0,39.7,0,79.3,0,119c0,59,0,118,0,177
			c0,9.5,0.1,9.5,9,9.5c29.3,0,58.7,0,88,0c8.3,0,8.4-0.1,8.4-8.1c0-102.3,0.1-204.6-0.2-306.9
			C1745.9,554.2,1743.3,533.7,1736.7,513.9L1736.7,513.9z"/>
		<path class="st1" d="M1179.3,455.3c-32.5-9-65.9-9.8-99.1-5.3c-74.5,10.2-126.7,50.5-157.2,118.8c-11.6,26-17,53.8-19,82.3
			c-2.6,37.6,0.2,74.7,12.8,110.3c24.8,70.1,72.2,117,145.3,133.7c50.3,11.5,100.6,6.3,149.7-10.1c35.5-11.9,64.2-33.2,87.4-62.3
			c5.3-6.7,5.3-6.8-1.2-12.6c-13.6-12.2-27.3-24.5-41-36.6c-1.9-1.7-3.3-4.2-7.6-4.6c-0.8,1-1.8,2.8-3.1,4.2
			c-29.3,30.4-64.4,49-106.9,52.3c-35.2,2.8-65.8-7.2-90.5-33.2c-21.3-22.3-30.8-50.1-36.4-79.7c-0.1-0.5,0.3-1.2,0.5-1.9
			c3.8-1.5,7.9-0.7,11.8-0.7c95.3,0,190.6,0,285.9,0c2.3,0,4.7-0.2,7,0c5,0.5,7.2-1.3,7.3-6.6c1.2-38.8,0.4-77.3-10.8-114.9
			C1293.5,519.5,1248.8,474.5,1179.3,455.3L1179.3,455.3z M1212.2,636c-14.7-0.2-29.3-0.1-44-0.1c-18,0-36,0-54,0c-31,0-62,0-93,0
			c-2.3,0-4.7,0-7-0.1c-2.5,0-3.7-1.4-3.3-3.8c5-39,14.4-75.6,51.9-97.4c17.7-10.3,37.1-12.5,56.9-11.8c26.4,0.9,49.6,9.8,67.5,29.9
			c14.6,16.4,22.5,36,27.2,57.1c1.4,6.5,2.1,13.2,3.4,19.7C1218.8,634.4,1217.1,636,1212.2,636z"/>
		<path class="st1" d="M3479.5,453.9h-8.2c-28.7,0-57.3,0-86,0c-9.3,0-9.3,0-12.2,9.1c-17.6,56.2-35.2,112.4-52.8,168.7
			c-13.5,43.2-27.1,86.4-40.6,129.5c-0.6,0.1-1.3,0.2-1.9,0.3c-1.2-3.3-2.4-6.6-3.5-10c-30.2-96.2-60.3-192.5-90.5-288.7
			c-2.8-8.9-2.8-8.9-12.3-8.9c-28.7,0-57.3,0-86,0c-2.8,0-5.9-1-8.9,1.5c0.8,2.7,1.6,5.6,2.6,8.4c45.3,135.4,90.7,270.8,136,406.3
			c3.2,9.5,8.1,18.8,8.8,28.5c0.7,10.1-4.7,19.9-7.5,29.8c-15.6,54-48.9,93-99.3,117.7c-2.9,1.4-6.4,1.9-8.7,5.5
			c19.1,19.8,38.4,39.6,57.4,59.7c3.5,3.7,6.2,2.3,9.6,0.5c22.9-11.8,44-26.2,62.8-44.1c30-28.4,51.5-62.6,68.2-100.1
			c12.5-28.1,21.2-57.5,31-86.5c46.8-138.8,93.5-277.6,140.2-416.5C3478.5,461.5,3480.7,458.3,3479.5,453.9L3479.5,453.9z"/>
		<path class="st1" d="M3012.9,465.4c0-1.3,0-2.7,0-4c-0.2-7.2-0.2-7.4-7-7.4c-30.3-0.1-60.6-0.1-91,0c-6.7,0-6.8,0.2-6.8,7.5
			c-0.1,11.6,0,23.3,0,37.1c-4.5-4.5-7.5-7.4-10.5-10.5c-15.7-16.1-34.5-27.1-55.9-33.5c-25.3-7.6-51.2-8-77.2-5.3
			c-24.1,2.5-46.8,9.7-67.7,22.3c-45.9,27.8-72.9,69-86.4,120c-10.2,38.6-10.4,77.8-7.3,117.1c2.3,27.9,8.1,55.4,19.7,81.2
			c25.3,56.3,66.3,94.1,127.9,107.2c15.8,3.3,31.7,3.7,47.7,3.3c41.2-0.9,75.6-16.5,103.2-47.2c1.7-1.8,2.7-4.6,6.6-5.2
			c-0.5,21.8,0.8,43.3-1,64.8c-1.1,13-2.7,25.8-6.9,38.2c-11.4,34.4-34.6,55.2-70.6,61.4c-6.3,1.1-12.5,1.8-18.8,2.3
			c-47,4.1-89-8.1-125.1-39c-4-3.5-7.2-9.8-12-9.9c-5.3-0.1-9.2,5.9-13.6,9.3c-14.6,11.1-29,22.3-43.3,33.4c1.1,4.3,3.8,7,5.9,9.9
			c23.4,31.4,54.4,52.5,91.1,65.6c18.6,6.6,37.7,10.6,57.3,13.1c36.8,4.7,73.2,3.3,108.9-7c60.3-17.6,102.6-55,123.5-114.9
			c7.9-22.6,9.5-46.1,9.5-69.9C3012.9,758.6,3013,612,3012.9,465.4L3012.9,465.4z M2904.6,768.5c-6.8,14.3-16.1,26.8-27.6,37.6
			c-10.9,10.2-24.2,15.1-38.5,17.6c-15.2,2.6-30.5,3.1-45.7,0.2c-15.4-3-28.9-9.6-40.4-20.4c-19.4-18.1-31.4-40.5-37.8-65.8
			c-10.6-42.1-10.6-84.4-0.1-126.5c5.2-20.9,14.5-39.9,28.3-56.7c16.7-20.3,38.1-30.6,64.1-31.8c11.4-0.5,22.7,0.4,33.8,2.3
			c33.3,5.6,52.8,27.4,66,56.5c1.6,3.5,1.5,7.1,1.5,10.8c0,26.7,0,53.3,0,80s-0.1,53.3,0.1,80C2908.3,758,2907,763.3,2904.6,768.5
			L2904.6,768.5z"/>
		<path class="st1" d="M2109.9,463.1c-42.4-17.5-87.3-19.7-131.8-11.7c-79.3,14.3-130.7,62-155.9,138.2
			c-11.3,34-13.5,69.2-11.6,104.7c1.9,35.7,10.2,69.9,27.7,101.3c30.4,54.6,75.6,89.8,137.7,101.1c45,8.3,89.5,4.3,133.4-8.5
			c39-11.4,70.9-33.2,96.2-64.9c6.1-7.7,6.6-6.6-0.8-13.2c-13.4-12-26.8-24-40.3-36c-2.2-1.9-3.9-4.6-7.8-5.1
			c-1.1,1.3-2.3,2.8-3.7,4.3c-29,30.2-63.8,48.7-106,52.2c-43,3.5-77.6-11.7-102.7-47.2c-14.1-20-20.4-43.1-25.8-67.1
			c5-1.7,9-1.1,13-1.1c96.7,0,193.3,0,289.9,0c10.1,0,10.4,0,10.6-8.5c0.9-33.4,0.1-66.5-7.6-99.3
			C2209.3,536.7,2172.5,488.9,2109.9,463.1L2109.9,463.1z M2119,635.9c-2-0.2-4,0-6,0c-61.2,0-122.5,0-183.7,0
			c-3.6,0-7.3,0.6-11.5-1.1c3.1-29.5,8.4-58,28.7-81.2c20.6-23.6,47.6-31.7,78-30.8c40.5,1.1,69.5,19.7,86.6,56.6
			c5.5,11.8,9,24.3,11.4,37.1c0.9,4.6,1.3,9.2,2.1,13.8C2125.2,634.6,2123.3,636.3,2119,635.9L2119,635.9z"/>
		<path class="st1" d="M2548.3,454c0-2.1-0.2-3.7-1.1-4.6c-0.7-0.7-1.9-1-3.8-1c-2.6,0.1-5.2,0.1-7.7,0.1c-5.6,0-11.5,0-17.1,1
			c-40.9,7.2-77.6,23.6-108.9,48.6c-1.1,0.9-2.3,1.8-3.9,3c-0.9,0.7-2,1.5-3.3,2.5l-0.8,0.6v-1c0-4.6,0-9.1,0-13.4
			c0-9.8,0-19.1,0-28.3c0-4.7-2.5-7.1-7.3-7.1c-14.8,0-29.6,0-44.5,0s-29.6,0-44.5,0c-5.4,0-8.1,2.8-8.1,8.4c0,26.5,0,52.9,0,79.4
			v28.6v66.6c0,81.1,0,162.1,0,243.2c0,5.9,2.9,8.8,8.7,8.8c28,0,56,0,83.9,0h0.4c1.2,0,2.3,0,3.3,0c0.8,0,1.5,0,2.2,0l0,0
			c2.8,0,4.3-0.1,5-0.9c0.9-0.9,0.9-3.1,0.8-7.1c0-1.1,0-2.4,0-3.8v-14.8c0-92.4,0.1-188-0.1-282c0-7.9,2.2-12.7,8-17.2
			c24.9-19.6,53.8-31.7,85.8-35.8c15.3-2,31.6-3.9,47.8-3.5h0.4c1.9,0,3.1-0.3,3.8-1.1c0.8-0.8,1.1-2.1,1.1-4.1
			C2548.2,495.4,2548.2,471.9,2548.3,454L2548.3,454z"/>
	</g>
</g>
</svg>
